<?xml version="1.0" encoding="UTF-8" standalone="no"?>
<!-- Created with Inkscape (http://www.inkscape.org/) -->

<svg
   width="291.66415"
   height="168.48642"
   viewBox="0 0 138.89697 80.23699"
   version="1.1"
   id="svg1"
   xmlns="http://www.w3.org/2000/svg"
   xmlns:svg="http://www.w3.org/2000/svg">
  <defs
     id="defs1" />
  <g
     id="layer1"
     transform="translate(-58.254187,-77.760568)">
    <g
       id="layer5"
       transform="translate(8.4091324,35.91306)"
       style="display:inline">
      <path
         id="path7"
         style="display:none;fill:#1a1a1a;fill-opacity:1;stroke-width:0.141;stroke-dasharray:none"
         d="m 98.576898,42.169233 c -2.61466,2.62e-4 -5.22937,-5.35e-4 -7.84397,0.02119 -8.8671,0.540278 -17.840733,-0.424535 -26.612327,1.195263 -16.85751,3.16252 -13.732732,18.143846 -13.723194,31.879718 -0.08566,9.504717 -0.205667,18.998043 1.067119,28.433406 2.599078,15.34381 11.374597,16.88443 25.333337,16.88006 16.543051,0.14236 16.926663,0.6869 53.988437,0.58192 1.48903,0.0926 2.97719,0.18793 4.46846,0.23823 9.70386,0.27148 18.94852,0.34412 32.89308,0.34412 h 2.34922 c 4.99247,0.2063 9.86549,-0.73167 13.17438,-4.78476 3.50326,-3.9853 5.20213,-9.43782 4.6545,-14.7097 -0.37891,-6.793181 -0.54185,-12.195958 -0.473,-18.057837 0.0688,-5.861879 0.0995,-11.642875 0.0712,-17.572542 -0.0147,-1.70585 -0.0194,-3.415256 -0.17467,-5.11545 -0.12904,-1.188747 -0.26661,-2.379894 -0.47697,-3.556889 -0.20946,-0.939726 -0.41617,-1.882745 -0.68368,-2.80758 -0.2325,-0.696577 -0.49854,-1.373518 -0.83457,-2.027784 -4.37931,-10.570114 -14.79081,-10.233698 -24.65793,-10.771952 -3.4552,-0.190736 -6.91338,-0.186463 -10.37301,-0.167431 -4.56828,0 -9.13684,-2e-6 -13.70511,0 -4.29863,0 -8.59722,-6e-6 -12.89585,0 -3.43494,5e-6 -6.86987,1.9e-5 -10.3048,0 -2.52188,-2.9e-5 -5.04356,-4.9e-5 -7.56543,-5.17e-4 -2.55819,-5.29e-4 -5.11679,-0.0013 -7.674982,-0.0016 z m 0,0.999939 c 2.558102,2.65e-4 5.116362,0.0018 7.674462,0.0021 2.52193,2.64e-4 5.04402,5.16e-4 7.56595,5.16e-4 3.43494,1.8e-5 6.86987,3e-6 10.3048,0 4.29864,-5e-6 8.59721,3e-6 12.89585,0 h 13.70459 c 3.4412,-0.01818 6.88146,-0.02505 10.31824,0.165365 9.81463,0.882796 19.02033,-0.356585 23.79131,10.16062 0.32485,0.632312 0.58307,1.284474 0.8077,1.957503 0.25434,0.89284 0.4546,1.80203 0.65629,2.708362 0.20018,1.14117 0.33414,2.294808 0.45889,3.446818 0.15043,1.667316 0.15458,3.343496 0.16898,5.016231 0.0354,11.431389 -0.16643,21.493529 0.27465,32.398023 0.3001,4.6209 0.57616,9.62033 -1.90169,13.75265 -1.71158,3.13553 -4.15364,6.31434 -7.78558,7.23108 -2.22483,0.91991 -4.65913,0.73484 -7.01455,0.73484 h -2.34922 c -10.95482,0.0383 -21.90755,-0.0725 -32.85949,-0.3436 -1.50251,-0.0506 -3.00159,-0.14929 -4.50205,-0.23874 -42.479092,-6e-5 -35.911102,-0.61576 -50.524052,-0.58183 -1.15487,1e-5 -2.31003,-2.5e-4 -3.464902,0 -5.385893,0.0758 -10.978598,-0.11261 -16.043195,-2.18708 -5.180318,-3.20157 -7.183975,-7.91716 -8.298201,-13.82706 -1.271378,-9.390379 -1.138362,-18.840064 -1.058334,-28.299566 -0.03627,-16.950418 -1.883598,-27.859424 12.961483,-30.90819 3.447399,-0.835651 12.658022,-1.022107 26.384949,-1.166838 2.61111,-0.0217 5.22194,-0.02092 7.83312,-0.02119 z" />
      <path
         style="display:none;fill:#a2d2cb;fill-opacity:0.854922;stroke-width:0.743357;stroke-dasharray:none"
         d="m 508.43825,454.57246 c -30.68763,-0.63696 -99.42095,-1.75974 -152.74071,-2.49505 -104.65464,-1.44326 -109.91059,-1.83232 -125.0911,-9.25945 -8.59426,-4.20478 -18.43816,-14.63739 -23.38131,-24.77962 -9.76331,-20.03208 -11.81843,-42.13727 -12.08544,-129.99307 -0.1682,-55.34215 0.14782,-67.16402 2.02765,-75.85213 6.64176,-30.69648 23.19892,-42.42548 65.32196,-46.27373 8.91066,-0.81405 80.97438,-1.80395 165.38303,-2.27177 190.07469,-1.05345 222.66372,0.38682 244.02613,10.78471 10.3684,5.04669 19.5863,14.77245 25.4948,26.89943 7.4307,15.25124 8.13117,24.63625 8.92178,119.53522 0.71327,85.61304 0.70741,85.85022 -2.34562,94.85268 -3.49822,10.31525 -11.68514,23.284 -18.15192,28.75413 -2.42693,2.0529 -7.86496,5.35839 -12.08451,7.34554 l -7.6719,3.61299 -50.91357,0.14912 c -28.00247,0.082 -76.02164,-0.37203 -106.70927,-1.009 z"
         id="path12"
         transform="scale(0.26458333)" />
      <path
         style="display:none;fill:#343630"
         d="m 98.505859,41.894531 c -2.591169,2.43e-4 -5.182654,-0.002 -7.77539,0.01953 h -0.0078 l -0.0059,0.002 c -8.835964,0.53838 -17.822684,-0.43022 -26.646485,1.199218 -8.509273,1.596366 -12.063654,6.255925 -13.404296,12.183594 -1.340643,5.92767 -0.549677,13.119683 -0.544922,19.966797 -0.08565,9.503401 -0.205966,19.009452 1.070312,28.4707 v 0.004 l 0.002,0.004 c 1.307813,7.72076 4.204467,12.04744 8.546875,14.39259 4.341521,2.34466 10.067111,2.71882 17.054688,2.7168 16.532853,0.14227 16.938094,0.68666 53.974609,0.58203 1.48869,0.0926 2.97974,0.18779 4.47656,0.23828 9.70738,0.27158 18.95683,0.3457 32.90235,0.3457 h 2.34765 l -0.01,-0.002 c 5.03428,0.20803 10.01892,-0.74516 13.39844,-4.88477 3.55198,-4.04505 5.2702,-9.56583 4.71484,-14.91211 l 0.002,0.0117 c -0.3787,-6.789459 -0.54142,-12.184279 -0.47265,-18.039066 0.0688,-5.863042 0.0986,-11.644699 0.0703,-17.576172 v -0.002 c -0.0147,-1.70477 -0.019,-3.42037 -0.17578,-5.136718 v -0.0039 -0.002 c -0.12918,-1.190002 -0.26811,-2.386012 -0.48047,-3.574219 v -0.0059 l -0.002,-0.0059 c -0.20932,-0.939093 -0.41663,-1.887755 -0.6875,-2.824219 l -0.002,-0.0059 -0.002,-0.0059 c -0.2331,-0.698386 -0.50248,-1.380974 -0.8418,-2.044922 -2.2196,-5.357335 -6.00784,-7.986192 -10.44531,-9.30664 -4.43747,-1.320449 -9.52599,-1.366096 -14.45117,-1.634766 -3.46553,-0.191306 -6.92826,-0.187005 -10.38867,-0.167969 -4.56828,0 -9.13681,-2e-6 -13.70508,0 -4.29863,0 -8.5959,-6e-6 -12.89453,0 -3.43494,5e-6 -6.86976,1.9e-5 -10.30469,0 -2.52188,-2.9e-5 -5.04457,-0.0015 -7.56641,-0.002 -2.55817,-5.29e-4 -5.1156,3e-4 -7.673826,0 h -0.002 z m 0.07031,0.550781 c 0.02408,3e-6 0.04818,-2e-6 0.07227,0 2.534081,3.06e-4 5.069391,-5.24e-4 7.603511,0 2.52191,4.69e-4 5.04453,0.0019 7.56641,0.002 3.43493,1.9e-5 6.86975,5e-6 10.30469,0 4.29863,-6e-6 8.5959,0 12.89453,0 4.56827,-2e-6 9.1368,0 13.70508,0 h 0.002 c 3.45885,-0.01903 6.91255,-0.02415 10.35742,0.166015 4.94194,0.269584 9.99238,0.324846 14.32227,1.613281 4.32988,1.288436 7.93599,3.777457 10.0957,8.990235 l 0.004,0.0098 0.006,0.0098 c 0.32774,0.638136 0.58887,1.30268 0.81835,1.990234 0.26252,0.909499 0.46708,1.842968 0.67579,2.779297 0.20719,1.162033 0.34222,2.343802 0.4707,3.527344 0.15328,1.682146 0.15914,3.382922 0.17383,5.087891 0.0283,5.927169 -0.002,11.706342 -0.0703,17.566406 -0.0689,5.868971 0.0935,11.279266 0.47266,18.076175 v 0.008 l 0.002,0.006 c 0.53957,5.19422 -1.13773,10.57511 -4.58789,14.49999 l -0.004,0.002 -0.002,0.004 c -3.23826,3.96658 -8.00051,4.89011 -12.95117,4.68555 l -0.006,-0.002 h -2.35351 c -13.94278,0 -23.18505,-0.0724 -32.88477,-0.34375 h -0.002 c -1.48507,-0.0501 -2.97026,-0.14375 -4.45899,-0.23633 l -0.008,-0.002 h -0.01 c -37.059072,0.10497 -37.435317,-0.43962 -53.984377,-0.58204 h -0.002 -0.002 c -6.969216,0.002 -12.610117,-0.39036 -16.794922,-2.65039 -4.182817,-2.25895 -6.971596,-6.37412 -8.263672,-13.99023 v -0.002 C 50.469352,94.251965 50.588168,84.772309 50.673828,75.267578 v -0.002 C 50.669045,68.376867 49.894164,61.209466 51.203125,55.421875 52.511978,49.634763 55.823211,45.222746 64.169922,43.65625 72.889309,42.046093 81.851764,43.007019 90.75,42.464844 l -0.01563,0.002 c 2.613018,-0.02171 5.227062,-0.02122 7.841797,-0.02148 z"
         id="path6" />
      <path
         id="path14"
         style="display:inline;fill:none;fill-opacity:1;stroke:#343630;stroke-width:0.63;stroke-dasharray:none;stroke-opacity:1"
         d="m 98.576898,42.169233 c -2.61466,2.62e-4 -5.22937,-5.35e-4 -7.84397,0.02119 -8.8671,0.540278 -17.840733,-0.424535 -26.612327,1.195263 -16.85751,3.16252 -13.732732,18.143846 -13.723194,31.879718 -0.08566,9.504717 -0.205667,18.998043 1.067119,28.433406 2.599078,15.34381 11.374597,16.88443 25.333337,16.88006 16.543051,0.14236 16.926663,0.6869 53.988437,0.58192 1.48903,0.0926 2.97719,0.18793 4.46846,0.23823 9.70386,0.27148 18.94852,0.34412 32.89308,0.34412 h 2.34922 c 4.99247,0.2063 9.86549,-0.73167 13.17438,-4.78476 3.50326,-3.9853 5.20213,-9.43782 4.6545,-14.7097 -0.37891,-6.793181 -0.54185,-12.195958 -0.473,-18.057837 0.0688,-5.861879 0.0995,-11.642875 0.0712,-17.572542 -0.0147,-1.70585 -0.0194,-3.415256 -0.17467,-5.11545 -0.12904,-1.188747 -0.26661,-2.379894 -0.47697,-3.556889 -0.20946,-0.939726 -0.41617,-1.882745 -0.68368,-2.80758 -0.2325,-0.696577 -0.49854,-1.373518 -0.83457,-2.027784 -4.37931,-10.570114 -14.79081,-10.233698 -24.65793,-10.771952 -3.4552,-0.190736 -6.91338,-0.186463 -10.37301,-0.167431 -4.56828,0 -9.13684,-2e-6 -13.70511,0 -4.29863,0 -8.59722,-6e-6 -12.89585,0 -3.43494,5e-6 -6.86987,1.9e-5 -10.3048,0 -2.52188,-2.9e-5 -5.04356,-4.9e-5 -7.56543,-5.17e-4 -2.55819,-5.29e-4 -5.11679,-0.0013 -7.674982,-0.0016 z" />
    </g>
    <path
       style="display:inline;fill:#a2d2cb;fill-opacity:0.854902;stroke:none;stroke-width:0;stroke-dasharray:none;stroke-opacity:1"
       d="m 493.34257,592.42702 c -174.68072,-2.94238 -207.94185,-3.96173 -217.56797,-6.66772 -32.68459,-9.18793 -45.51388,-29.34882 -49.57552,-77.90665 -2.23007,-26.66092 -3.41829,-139.87909 -1.60298,-152.73764 3.84923,-27.26558 14.19896,-41.41484 36.36406,-49.71386 18.99002,-7.1102 30.73167,-7.6273 194.96169,-8.58604 197.03451,-1.15024 227.02217,0.25404 249.68106,11.69221 15.43528,7.79171 26.84428,23.6642 31.71047,44.11643 1.97474,8.29966 2.47288,22.38587 2.75925,78.02503 0.52861,102.69496 3.03895,99.76715 0.74595,111.56322 -4.04721,20.82046 -19.02856,41.25124 -34.97111,47.69173 -10.85511,4.38528 -83.51842,4.696 -212.5049,2.52329 z"
       id="path13"
       transform="scale(0.26458333)" />
  </g>
</svg>
