<?xml version="1.0" encoding="UTF-8" standalone="no"?>
<!-- Created with Inkscape (http://www.inkscape.org/) -->

<svg
   width="35.571648mm"
   height="63.019009mm"
   viewBox="0 0 35.571648 63.019009"
   version="1.1"
   id="svg1"
   xmlns="http://www.w3.org/2000/svg"
   xmlns:svg="http://www.w3.org/2000/svg">
  <defs
     id="defs1" />
  <g
     id="layer4"
     style="display:none"
     transform="translate(-0.01395064,-19.849343)">
    <path
       d="m -43.358096,268.67037 c -0.117171,0.0135 -0.246833,0.10481 -0.375171,0.30851 -1.602431,2.6015 -1.300577,5.78547 -1.187008,8.7018 0.260571,3.6455 0.690335,7.41411 2.420524,10.68927 0.717694,1.06323 2.462214,1.07977 3.169832,-0.006 2.309412,-2.40347 3.025032,-5.8008 3.659725,-8.95915 0.337878,-1.87326 0.712009,-3.74616 0.98547,-5.62808 0.848763,3.10338 4.169925,12.13558 9.7901,14.82856 1.19498,0.57305 2.805854,0.49598 3.651979,-0.63976 1.44611,-1.70237 1.58795,-4.05022 1.86758,-6.16965 0.25324,-3.08611 -0.15113,-6.21609 -1.11363,-9.15603 0.56514,-0.89886 -1.2268,-2.97152 -1.487761,-1.37201 1.153041,3.22341 1.848771,6.63997 1.684651,10.07536 -0.0401,2.07328 -0.23481,4.33255 -1.53892,6.03219 -1.167513,1.16422 -3.097319,0.58976 -4.146003,-0.44804 -4.823818,-3.85443 -6.474246,-9.74735 -8.720915,-15.17995 -1.745939,-0.42286 -0.526247,5.52996 -3.692281,13.51959 -0.64536,1.02061 -1.4807,3.2814 -3.006018,2.50062 -1.125768,-0.9035 -1.323482,-2.45232 -1.687753,-3.76618 -0.755801,-3.45009 -1.013356,-7.00177 -0.968416,-10.52752 0.06731,-1.31195 0.301135,-2.66795 1.034562,-3.78478 0.249255,-0.4018 0.01096,-1.05893 -0.340547,-1.01855 z"
       style="baseline-shift:baseline;display:inline;overflow:visible;vector-effect:none;enable-background:accumulate;stop-color:#000000;stop-opacity:1"
       id="path24" />
    <path
       d="m -11.249455,272.91301 c -0.60104,0.0272 -1.20172,0.34999 -1.56787,0.83096 -1.47457,1.4937 -2.1665,3.53764 -2.8546,5.47305 -0.59235,1.89588 -0.99299,3.96599 -0.46716,5.92315 0.74853,2.11288 2.94245,3.32825 5.05396,3.67213 2.6696097,0.4688 5.5007297,-0.51663 7.3752607,-2.45825 1.34653,-1.25136 2.4883,-2.75408 3.17706996,-4.46743 0.0934,-1.0743 -1.23560996,-0.61187 -1.24488996,0.18707 -0.48298,0.96006 -1.00565,1.91452 -1.77509,2.67839 -1.587791,1.856 -3.912441,3.32783 -6.437851,3.15123 -1.9028797,-0.0678 -3.9348797,-0.8571 -4.9655797,-2.53731 -0.8835,-1.78148 -0.28066,-3.80398 0.18448,-5.61206 0.60129,-2.02462 1.45645,-3.84318 2.80086,-5.48701 0.69051,-0.74742 1.85418,-0.44341 1.79473,1.6738 0.0263,1.37136 -0.19338,1.85552 -0.74414,3.13004 -0.53171,1.00299 -1.52705,1.61302 -2.42931,2.23966 -0.38166,0.32727 -0.80063,1.37746 0.15968,1.10433 2.20313,-0.96317 3.7458897,-3.21338 3.8803797,-5.61103 0.15454,-1.23012 0.13322,-2.73613 -0.9084697,-3.591 -0.3103,-0.22633 -0.67084,-0.31605 -1.03146,-0.29972 z"
       style="baseline-shift:baseline;display:inline;overflow:visible;vector-effect:none;enable-background:accumulate;stop-color:#000000;stop-opacity:1"
       id="path22" />
    <path
       d="m -0.14315434,262.35293 c -0.31901,0.007 -0.70248,0.34078 -0.493,0.66456 1.49476,8.45657 2.45522004,16.13657 3.91553004,24.0869 1.40745,0.062 1.54124,-1.62251 1.44642,-2.66599 -0.80459,-8.26008 6.2293903,-10.7705 9.7751103,-8.16125 5.72092,4.46519 1.98153,12.86104 -8.1834803,11.11611 -1.07484,-0.02 -0.91104,1.22796 0.10852,0.9679 15.9742003,1.71931 13.6034903,-14.01603 5.1325103,-14.11128 -5.8830603,0.24095 -7.6574703,4.57264 -8.0408603,8.25996 -1.16968,-6.0867 -1.77656,-11.655 -3.32744004,-19.93263 -0.0566,-0.1633 -0.18831,-0.22752 -0.33331,-0.22428 z"
       style="baseline-shift:baseline;display:inline;overflow:visible;vector-effect:none;enable-background:accumulate;stop-color:#000000;stop-opacity:1"
       id="path21" />
    <path
       d="m 35.536836,268.32724 c -0.25,0 -0.49971,0.17665 -0.49971,0.5302 v 0.12093 c 0.33075,-0.068 0.65936,-0.14411 0.9927,-0.19896 -0.0347,-0.30032 -0.26257,-0.45217 -0.49299,-0.45217 z m 0.50023,1.45108 c -0.33617,0.0575 -0.66681,0.1391 -0.99994,0.21187 v 9.50795 c -0.0318,2.23134 0.0542,4.46159 0.17725,6.689 0.039,0.70602 1.0374,0.65073 0.99839,-0.0553 -0.12212,-2.20903 -0.20758,-4.42077 -0.1757,-6.63371 z"
       style="baseline-shift:baseline;display:inline;overflow:visible;vector-effect:none;enable-background:accumulate;stop-color:#000000;stop-opacity:1"
       id="path20" />
    <path
       d="m 39.832696,268.45023 c -2.60982,0.0142 -5.2218,0.47091 -7.69204,1.27899 -0.84878,0.40547 -3.05191,0.62807 -2.3368,2.00918 l 0.25011,-0.0408 c 4.91714,-2.41173 10.77602,-2.92751 16.01918,-1.32808 3.67194,1.22594 10.85128,7.04784 5.79809,12.26592 -2.56721,2.98223 -6.37442,4.40097 -9.94616,5.78001 -2.94257,1.04904 -5.97163,1.88922 -9.07077,2.3151 -0.70847,-0.37851 -2.96196,0.43873 -1.45159,1.0573 1.65034,0.23929 3.22467,-0.49438 4.84209,-0.67438 5.42871,-1.32862 10.94809,-3.12535 15.33653,-6.7107 8.28687,-7.32931 -2.18812,-14.67529 -7.08484,-15.48019 -1.53284,-0.33003 -3.09791,-0.48084 -4.6638,-0.47232 z"
       style="baseline-shift:baseline;display:inline;overflow:visible;vector-effect:none;enable-background:accumulate;stop-color:#000000;stop-opacity:1"
       id="path19" />
    <path
       d="m 63.278296,272.84996 c -0.70693,0.0212 -1.41879,0.24904 -1.98748,0.64028 -1.6879,1.01988 -2.72767,2.75544 -3.87005,4.30309 -1.36297,2.26128 -2.0996,5.06307 -1.4087,7.6662 0.64371,1.73608 2.41147,2.73088 4.09433,3.25097 2.23882,0.66792 4.87599,0.29696 6.6027,-1.36013 1.43585,-1.24981 2.69458,-2.80351 3.25664,-4.64571 0.0762,-0.85465 -1.00482,-0.71522 -0.97823,0.0651 -0.43544,1.24969 -1.13888,2.40317 -2.1177,3.30109 -1.44078,1.40882 -3.49431,2.38872 -5.54178,1.99833 -1.52258,-0.25195 -2.97478,-0.99398 -4.04833,-2.10323 -0.76051,-1.08058 -0.61801,-2.49979 -0.46199,-3.73879 0.55682,-3.26799 2.60715,-6.13973 5.16971,-8.16539 0.95142,-0.50837 2.37098,-0.43723 2.98741,0.55138 0.34129,1.12002 -0.44834,2.14466 -1.07538,2.99258 -1.37084,1.63038 -3.3069,2.60239 -5.11545,3.65611 -0.41817,0.31332 0.16389,0.87614 0.53382,0.67955 2.37943,-1.19948 4.88155,-2.62144 6.17275,-5.06119 0.47378,-0.89254 0.87405,-2.10706 0.17518,-2.99413 -0.57778,-0.74893 -1.47855,-1.06334 -2.38745,-1.03612 z"
       style="baseline-shift:baseline;display:inline;overflow:visible;vector-effect:none;enable-background:accumulate;stop-color:#000000;stop-opacity:1"
       id="path18" />
    <path
       d="m 79.661276,273.78944 c -0.29801,0.0136 -0.63803,0.23933 -0.70384,0.54157 0.0513,0.52091 -0.1533,1.02593 -0.26458,1.54203 -0.72725,2.99894 -1.4351,6.00328 -2.10426,9.01547 -0.0588,0.31701 -0.11145,0.63525 -0.1571,0.95446 -1.54916,-3.21959 -2.87579,-6.56062 -3.71812,-10.03815 -0.23564,-0.52299 -0.005,-1.22295 -0.46819,-1.64021 -0.30952,-0.23157 -0.78188,0.006 -0.73122,0.4036 0.20725,2.14545 0.99825,4.17075 1.67328,6.20013 0.83719,2.29264 1.8207,4.53194 2.94194,6.69985 0.46967,0.59154 1.37779,-0.11291 1.22577,-0.74827 0.0791,-1.19865 0.37773,-2.37085 0.62477,-3.54345 0.49354,-2.10989 1.03937,-4.20721 1.49758,-6.3252 0.21595,-0.88219 0.43975,-1.76264 0.65371,-2.64532 -0.0319,-0.30936 -0.23796,-0.42708 -0.46974,-0.41651 z"
       style="baseline-shift:baseline;display:inline;overflow:visible;vector-effect:none;enable-background:accumulate;stop-color:#000000;stop-opacity:1"
       id="path17" />
    <path
       d="m 90.199646,272.97761 c -1.03268,-0.0342 -2.07795,0.51437 -2.83962,1.1901 -2.39348,1.86023 -3.94586,4.75391 -4.21059,7.76852 -0.0955,1.19124 0.32991,2.39161 1.16168,3.24942 1.20391,1.44247 3.10756,2.23604 4.97903,2.08669 2.25561,-0.14498 4.34462,-1.25147 6.03012,-2.70991 0.62573,0.029 1.26716,-1.04694 0.64389,-1.42162 -0.65452,-0.0469 -1.13658,0.55017 -1.62988,0.9033 -1.35565,1.19422 -3.05495,2.08128 -4.86947,2.26188 -1.94483,0.19476 -3.92644,-0.83378 -4.95008,-2.48357 -0.70396,-1.54653 -0.17771,-3.27543 0.3762,-4.77852 0.92206,-2.19455 2.60472,-4.13198 4.81314,-5.08858 0.92709,-0.31494 1.78396,0.79943 1.27435,1.62574 -0.51265,1.61698 -1.98966,2.71764 -3.52124,3.28973 -0.70718,0.18274 -1.6017,-0.002 -2.11718,0.63665 -0.22695,0.27998 0.14186,0.65625 0.43977,0.60461 2.66166,-0.0652 5.40179,-1.73503 6.18205,-4.36924 0.27523,-0.86992 0.18399,-2.08282 -0.74466,-2.51974 -0.33043,-0.1577 -0.67328,-0.23407 -1.01751,-0.24546 z"
       style="baseline-shift:baseline;display:inline;overflow:visible;vector-effect:none;enable-background:accumulate;stop-color:#000000;stop-opacity:1"
       id="path15" />
    <path
       d="m 98.792406,265.58943 c -0.29389,-0.0163 -0.62242,0.18614 -0.56431,0.51469 -0.009,5.07752 -0.1724,10.22681 1.02061,15.20269 0.50195,2.21473 1.137904,4.49416 2.541974,6.32106 0.66372,0.77131 1.85865,1.26546 2.80241,0.69867 0.64334,-0.0997 2.04829,-1.10351 1.09192,-1.66605 -0.90715,-0.006 -1.6295,1.47677 -2.61999,0.71624 -1.13324,-0.73526 -1.51689,-2.12626 -1.99936,-3.30936 -1.168604,-3.41206 -1.646864,-7.02732 -1.801454,-10.61848 -0.081,-2.52392 0.009,-5.04977 -0.0718,-7.57369 -0.0599,-0.18767 -0.22364,-0.27602 -0.39997,-0.28577 z"
       style="baseline-shift:baseline;display:inline;overflow:visible;vector-effect:none;enable-background:accumulate;stop-color:#000000;stop-opacity:1"
       id="path11" />
    <path
       d="m 111.01957,273.44114 c -0.47625,0.0118 -0.92222,0.15961 -0.7674,0.72089 0.67055,0.52395 1.58028,0.27557 2.34611,0.5302 1.73234,0.34352 3.46005,1.26356 4.31602,2.87011 0.93325,1.61632 0.8767,3.63114 0.21859,5.33559 -0.64889,1.77339 -2.10083,3.42018 -4.03541,3.73827 -1.81203,0.25786 -3.61829,-0.69301 -4.71909,-2.09961 -1.06289,-1.12528 -1.86648,-2.75349 -1.36271,-4.31602 0.30026,-1.43021 1.01082,-2.96011 2.43809,-3.5574 0.52913,-0.25352 0.99467,-1.30026 0.015,-1.25884 -2.09993,0.77347 -3.36047,2.95102 -3.62407,5.0922 -0.35122,1.89439 0.648,3.76766 1.98748,5.04517 1.24828,1.32555 2.99749,2.37265 4.87825,2.20813 1.71314,-0.0686 3.30034,-1.03 4.29276,-2.40554 1.7424,-2.20481 2.21728,-5.40266 1.06454,-7.98091 -1.1849,-2.35106 -3.78402,-3.73075 -6.35672,-3.86849 -0.13391,-0.0206 -0.30699,-0.043 -0.48731,-0.0512 -0.0676,-0.003 -0.13608,-0.004 -0.20412,-0.003 z"
       style="baseline-shift:baseline;display:inline;overflow:visible;vector-effect:none;enable-background:accumulate;stop-color:#000000;stop-opacity:1"
       id="path8" />
    <path
       d="m 121.99823,273.1409 c -0.28396,-0.006 -0.5873,0.18428 -0.5364,0.51677 0.0209,2.45459 0.0746,4.90968 0.15658,7.36389 0.16419,-0.84576 0.44201,-1.66856 0.84646,-2.42983 0.0218,-0.0388 0.0463,-0.0758 0.0687,-0.1142 -0.0446,-1.64776 -0.0741,-3.29588 -0.0827,-4.9444 -0.0226,-0.26553 -0.23183,-0.38788 -0.45268,-0.39223 z m 0.63097,8.29304 c -0.0863,0.48427 -0.13074,0.97657 -0.11628,1.47226 0.0403,0.40891 -0.46734,0.58141 -0.8077,0.45217 0.19826,4.72595 0.51833,9.44653 0.99374,14.15055 1.3273,2.02693 0.97896,-2.13466 0.67593,-3.05769 -0.31151,-4.33402 -0.57923,-8.67392 -0.74569,-13.01729 z"
       style="baseline-shift:baseline;display:inline;overflow:visible;vector-effect:none;enable-background:accumulate;stop-color:#000000;stop-opacity:1"
       id="path4" />
    <path
       d="m 129.90782,273.96049 c -0.41181,0.01 -0.82365,0.06 -1.22938,0.15503 -2.55054,0.56787 -4.92351,2.17922 -6.21357,4.47621 -0.73533,1.38407 -1.06683,2.9693 -1.01906,4.53203 0.19638,0.45376 1.12096,0.3287 1.06711,-0.21756 -0.0941,-3.22489 2.04944,-6.35645 5.0736,-7.46725 2.4751,-1.19222 5.73353,-0.26616 7.20266,2.06034 1.5011,2.08765 1.77679,5.19524 0.13281,7.28483 -1.64282,2.07089 -4.46764,2.86192 -7.02335,2.6231 -1.6623,-0.16981 -3.34813,-0.88749 -4.36769,-2.2562 -1.10895,0.13047 -0.45975,1.48602 0.23926,1.74253 1.91029,1.46715 4.49492,1.74223 6.81096,1.36013 2.3127,-0.42203 4.61779,-1.66064 5.82548,-3.73983 1.53065,-2.80429 0.627,-6.48675 -1.64848,-8.61549 -1.28224,-1.24669 -3.06583,-1.97884 -4.85035,-1.93787 z"
       style="baseline-shift:baseline;display:inline;overflow:visible;vector-effect:none;enable-background:accumulate;stop-color:#000000;stop-opacity:1"
       id="path3" />
    <path
       d="m 147.19721,273.25924 c -1.24985,0.0283 -2.48169,0.6231 -3.4184,1.43712 -2.46236,1.94133 -4.28526,4.87497 -4.43901,8.05378 0.006,1.80388 1.06751,3.54913 2.67943,4.36717 2.25849,1.2708 5.18568,0.93367 7.26467,-0.54415 1.06449,-0.72165 1.9043,-1.74876 2.46755,-2.90008 0.47664,-0.36913 0.50933,-1.77933 -0.33021,-1.53118 -0.76074,0.49734 -0.57496,1.63035 -1.25367,2.21692 -1.66626,2.22573 -4.95461,3.26569 -7.49929,1.98024 -1.38238,-0.69202 -2.44477,-2.16871 -2.30735,-3.75894 0.0928,-2.23143 1.2875,-4.26425 2.7342,-5.8999 0.97901,-1.05214 2.16221,-2.03369 3.5879,-2.3704 0.95948,-0.18911 2.22025,0.0743 2.61017,1.07901 0.33521,1.12664 -0.39278,2.23422 -1.15031,3.00757 -1.16997,1.1407 -2.83046,1.6538 -4.43849,1.67948 -0.52617,0.10406 -0.59439,1.08017 0.0605,1.00149 2.69979,0.0288 5.5333,-1.5267 6.48694,-4.13928 0.51478,-1.39398 -0.30799,-3.18594 -1.80919,-3.50522 -0.41034,-0.12932 -0.82879,-0.18307 -1.2454,-0.17363 z"
       style="baseline-shift:baseline;display:inline;overflow:visible;vector-effect:none;enable-background:accumulate;stop-color:#000000;stop-opacity:1"
       id="path2" />
    <path
       d="m 156.17702,273.31764 c -0.17799,0.004 -0.33056,0.13771 -0.38344,0.47439 h -5.2e-4 c -0.0461,4.88618 0.2144,9.77006 0.62839,14.63735 0.68602,0.65999 1.36454,-0.54179 1.11673,-1.17461 -0.23996,-3.32181 0.14584,-6.7956 1.74614,-9.76374 1.38115,-2.08751 4.05804,-3.34888 6.53966,-2.78588 0.45483,0.29941 1.3864,1.07662 1.72651,0.28267 0.0834,-0.85133 -0.95532,-1.1726 -1.60146,-1.40508 -2.33672,-0.61209 -4.83628,0.40498 -6.51536,2.04018 -1.36439,1.3432 -2.04716,3.20034 -2.41846,5.04155 -0.0294,0.13709 -0.0565,0.27437 -0.0827,0.41187 -0.0945,-2.14549 -0.14245,-4.2929 -0.14728,-6.44044 0.46605,-0.48505 -0.15336,-1.32732 -0.60823,-1.31826 z"
       style="baseline-shift:baseline;display:inline;overflow:visible;vector-effect:none;enable-background:accumulate;stop-color:#000000;stop-opacity:1"
       id="path1" />
  </g>
  <g
     id="layer1" />
  <path
     id="path7"
     style="display:inline;fill:#343630;fill-opacity:1;stroke-width:0.264583"
     d="M 0.14469401 -0.38395589 C -0.079922297 -0.39913338 -0.30418458 -0.24085817 -0.27905273 0.10593669 C -0.41015848 21.256768 -2.6947063 42.011183 -0.3534668 63.064884 C 0.11336007 63.271827 0.37594334 63.210203 0.51314697 62.989954 C 0.90215191 62.883373 1.3015377 62.162466 1.3451375 61.762122 C 2.3024099 60.661552 3.525822 59.782094 4.8379476 59.145744 C 9.4568116 57.110504 21.74437 59.361337 31.556213 57.220797 C 32.370721 57.007937 33.210973 56.840325 33.985522 56.505595 C 34.444469 56.307315 34.791604 56.026536 34.997864 55.561466 C 35.289181 54.876996 35.344226 54.141585 35.371484 53.403975 C 35.530752 50.944335 35.599796 48.481929 35.561137 46.016829 C 35.567237 41.959929 35.579006 37.903373 35.554936 33.846513 C 35.507566 28.955893 35.429386 24.05967 34.990629 19.185392 C 34.733732 16.694942 34.443972 14.224399 33.996891 11.759489 C 33.374139 8.3260294 32.929295 6.8873667 32.150492 5.9975667 C 30.970878 4.6497967 29.03679 4.4399462 27.368355 4.3542562 C 26.289862 4.3260062 25.211069 4.3179524 24.132377 4.3165324 C 20.748455 4.2820164 7.8280286 4.5600425 4.4844808 3.9062215 C 3.1127621 3.6543305 1.7604661 2.7862951 1.2221476 1.4645101 C 1.2070113 1.0366544 0.96093399 0.18456166 0.55500488 0.032556152 C 0.51881329 -0.22402832 0.3365724 -0.37099053 0.14469401 -0.38395589 z M 0.550354 2.3424927 C 0.60794562 2.4524112 0.66147167 2.5663432 0.72553711 2.6690877 C 2.2233597 4.7337107 4.0859389 5.0830939 8.4072388 5.2384399 C 12.728538 5.3937849 19.09416 5.3550944 20.896399 5.3185384 L 20.896399 5.3180216 C 23.045216 5.3220216 25.193808 5.2967784 27.342 5.3536784 C 28.749171 5.4411784 30.49984 5.5397862 31.476115 6.7355062 C 31.947817 7.3132462 32.362723 8.3414861 33.016073 11.953276 C 33.456518 14.388096 33.742572 16.828308 33.995858 19.288228 C 34.430859 24.13169 34.507977 28.996185 34.554997 33.855815 C 34.579017 37.908955 34.567218 41.962109 34.561198 46.015279 C 34.599778 48.459329 34.531658 50.90076 34.373612 53.33938 C 34.314132 53.93954 34.361832 54.596336 34.085258 55.152706 C 33.980904 55.397656 33.831282 55.490137 33.597949 55.583687 C 32.86731 55.898707 32.071959 56.052137 31.303516 56.252897 C 19.256102 58.810177 5.4373193 55.067117 1.4360881 60.239217 C 1.1111409 60.526663 0.78425738 60.856949 0.5214152 61.223653 C 0.4177042 60.580287 0.2928927 59.937323 0.3446818 59.574141 C -0.66207228 40.44722 0.43546056 21.48243 0.550354 2.3424927 z M 24.079667 8.7829264 C 23.883603 8.7656714 23.679398 8.8472351 23.599593 9.0402751 C 23.413823 9.4346851 23.814518 10.018951 23.801648 13.166121 C 23.846048 13.547171 24.406586 13.733248 24.654826 13.428638 C 24.749826 13.327768 24.803776 13.187666 24.795386 13.048816 C 24.799631 12.668997 24.792985 12.289082 24.779883 11.909351 C 26.228767 11.907636 27.677527 11.91615 29.126388 11.904183 C 29.537278 11.870083 29.703486 11.234234 29.350146 11.012764 C 29.058306 10.820494 28.698879 10.944165 28.375529 10.910445 C 27.158374 10.911089 25.941209 10.907815 24.724072 10.915096 C 24.677311 10.313324 24.609032 9.7134565 24.510649 9.1177897 C 24.463299 8.9163697 24.275731 8.8001814 24.079667 8.7829264 z M 28.89436 14.152108 C 28.644715 14.170937 28.395287 14.366772 28.407568 14.636316 C 28.502268 15.108326 28.874861 15.477163 28.935701 15.962333 C 29.079731 16.618783 28.939417 17.394025 28.402917 17.840255 C 27.747937 18.286885 25.687118 17.913704 24.737508 16.634644 C 24.567048 16.308944 24.917147 16.050742 25.066687 15.799552 C 25.245157 15.378192 24.667374 14.938515 24.311694 15.232145 C 23.716344 15.635735 23.484039 16.537966 23.911719 17.142106 C 24.802609 18.622856 27.205978 19.323268 28.548128 18.882568 C 29.871588 18.361308 30.606668 16.295305 29.287618 14.331425 C 29.193988 14.192964 29.044147 14.14081 28.89436 14.152108 z M 29.737203 19.986894 C 29.252733 20.043094 28.836449 20.32507 28.375529 20.46335 C 26.627159 21.16149 24.891597 21.904467 23.231657 22.794474 C 22.900067 23.036234 22.850326 23.610751 23.210986 23.850741 C 23.947806 24.518981 24.922386 24.813869 25.838216 25.146269 C 27.026946 25.533229 28.25549 25.845306 29.50776 25.906946 C 29.97298 25.869346 30.116569 25.175601 29.696379 24.965401 C 29.612979 24.919401 29.515843 24.898673 29.420943 24.905973 C 28.818945 24.856877 28.226826 24.744897 27.640173 24.608317 C 27.633572 23.857328 27.655492 23.105966 27.627771 22.355225 C 27.593922 22.176668 27.445737 22.050455 27.275854 21.999174 C 28.181985 21.616065 29.094693 21.248952 30.010571 20.890715 C 30.388671 20.662805 30.201603 19.933454 29.737203 19.986894 z M 26.701213 22.246187 C 26.646272 22.358234 26.625495 22.488065 26.642818 22.611023 C 26.642477 23.189059 26.641763 23.767286 26.649019 24.345284 C 25.980566 24.14107 25.321388 23.90332 24.679631 23.631632 C 24.544729 23.58012 24.389156 23.481121 24.246582 23.385653 C 25.052586 22.979461 25.873655 22.605494 26.701213 22.246187 z M 23.650236 26.267647 C 23.470191 26.225689 23.270706 26.270756 23.156726 26.429911 C 22.973616 26.653121 23.062046 26.95545 23.083346 27.21436 C 23.201246 28.40061 23.37173 29.582109 23.44198 30.772799 C 23.50738 31.166289 24.117558 31.298553 24.328748 30.952633 C 24.397148 30.857733 24.433946 30.739947 24.427966 30.622937 C 24.404832 30.187162 24.364849 29.752956 24.320479 29.319141 C 25.943697 29.318072 27.566767 29.3269 29.18995 29.312423 C 29.59412 29.267323 29.766221 28.646408 29.408541 28.425138 C 29.110731 28.235068 28.80112 28.307658 28.41377 28.319718 C 27.013934 28.321496 25.614366 28.316598 24.214543 28.32592 C 24.148782 27.760202 24.079332 27.194818 24.026957 26.627832 C 23.990607 26.438582 23.830281 26.309606 23.650236 26.267647 z M 28.973425 32.234725 C 28.766439 32.233392 28.543906 32.289676 28.360026 32.327226 C 26.588196 32.728866 24.764241 32.966028 22.951571 33.095138 C 22.499061 33.197568 22.505182 33.882962 22.906612 34.052702 C 23.174778 34.075981 24.886543 34.056325 27.60245 33.516817 C 26.402786 34.74366 25.283028 36.047555 24.226428 37.398751 C 24.081659 37.624532 24.189045 37.915668 24.386625 38.068994 C 24.499048 38.24277 24.71027 38.335604 24.914758 38.288619 C 26.145228 38.093509 27.383744 37.95058 28.615824 37.76617 C 28.849874 37.75307 29.137327 37.707654 29.246277 37.468514 C 29.393217 37.183694 29.200321 36.766095 28.863871 36.752795 C 28.524451 36.725177 27.177453 36.947623 25.694039 37.16724 C 26.71464 35.90548 27.815773 34.709439 28.957922 33.557125 C 29.344022 33.380265 29.647577 32.914576 29.493807 32.488456 C 29.371712 32.294956 29.180412 32.236057 28.973425 32.234725 z M 26.823686 39.61877 C 26.218544 39.623349 25.627736 39.807728 25.198462 40.193929 C 24.615882 40.714589 24.287279 41.456036 24.052279 42.186056 C 23.787621 42.980838 24.237247 43.160958 24.579378 43.056803 C 24.45906 43.175942 24.394472 43.342488 24.461039 43.51724 C 24.481939 43.57524 24.515849 43.635063 24.513749 43.635063 C 25.037829 44.472353 25.873475 45.18116 26.873295 45.3316 C 28.774825 45.46479 30.110825 42.701386 29.291235 40.989746 C 28.880898 40.102559 27.832255 39.61114 26.823686 39.61877 z M 27.032458 40.622843 C 27.7178 40.683022 28.404736 41.084675 28.513505 41.793831 C 28.723015 42.917031 27.78751 44.574687 26.81025 44.308407 C 26.14889 44.106967 25.658839 43.570448 25.286829 43.011328 C 25.163332 42.87939 24.987828 42.85935 24.827942 42.907975 C 24.863267 42.86659 24.8912 42.820726 24.902873 42.769482 C 25.152803 42.104432 25.337756 41.348817 25.926066 40.890527 C 26.210762 40.67344 26.621254 40.586736 27.032458 40.622843 z M 29.36875 46.295365 C 29.280743 46.283907 29.189165 46.298321 29.098482 46.347559 C 28.661742 46.573049 28.882233 47.09802 29.104683 47.39659 C 29.679123 48.24568 30.04355 49.29462 29.86071 50.32561 C 29.75182 50.91766 29.435375 51.566378 28.810645 51.742578 C 28.047615 51.965028 27.243076 51.672631 26.577706 51.299711 C 25.848286 50.861331 25.229573 50.236014 24.782983 49.513774 C 24.538983 49.187684 24.487857 48.6594 24.980387 48.56241 C 25.382967 48.35488 25.240863 47.736188 24.815023 47.669958 L 24.749394 47.662207 L 24.682731 47.663757 C 23.925461 47.629857 23.416965 48.511846 23.628015 49.190796 C 23.805095 50.175526 24.544912 50.919233 25.249622 51.572563 C 26.269122 52.458273 27.680027 53.035904 29.036987 52.723914 C 29.980157 52.466534 30.663106 51.58676 30.813106 50.63877 C 31.099176 49.32259 30.676632 47.943726 29.941842 46.846236 C 29.864509 46.595909 29.632771 46.329741 29.36875 46.295365 z " />
  <path
     style="display:inline;fill:#efefe6;fill-opacity:1;stroke-width:0.426669"
     d="M 1.312833,222.77638 C -0.02387722,203.38612 -0.11777444,133.42037 1.1159332,76.060219 1.8262628,43.034071 2.406195,14.771075 2.4046716,13.25356 l -0.00277,-2.759118 2.6020602,2.469326 c 6.4150152,6.087777 10.4950062,6.722685 45.8362892,7.132806 55.983379,0.649666 59.842279,0.777611 62.887139,2.085072 4.66393,2.002684 6.82778,5.358617 8.75893,13.584217 5.80279,24.716701 8.02883,58.058684 7.95537,119.156797 -0.0455,37.82266 -0.69991,52.3763 -2.42901,54.01832 -2.81063,2.66904 -20.00155,5.77229 -35.539467,6.41545 -5.284183,0.21873 -20.492262,0.58328 -33.79573,0.81011 -24.84877,0.42367 -33.688933,1.14933 -40.663221,3.33793 -5.162136,1.61993 -10.790964,5.17456 -13.0653557,8.25084 -0.9868697,1.33481 -2.0938343,2.42693 -2.4599212,2.42693 -0.3660869,0 -0.8953554,-3.33264 -1.1761521,-7.40586 z M 112.39708,198.08619 c 4.90542,-3.85859 5.88459,-10.92302 2.5167,-18.1571 -2.02712,-4.35414 -3.89022,-5.84692 -5.40582,-4.33132 -0.62877,0.62876 -0.27887,2.19331 1.25477,5.6107 2.42555,5.40486 2.58158,7.10406 0.99995,10.88946 -2.18031,5.21819 -9.92021,4.09767 -15.486456,-2.24202 -2.504455,-2.85245 -3.464943,-6.11043 -1.801426,-6.11043 1.238028,0 0.94534,-3.19726 -0.337756,-3.68964 -0.626111,-0.24026 -1.882858,-0.0384 -2.792763,0.44856 -5.35893,2.86801 -0.664918,12.81704 8.110309,17.18992 5.156312,2.5695 9.988112,2.71579 12.942492,0.39187 z m -6.1518,-27.91908 c 5.1734,-3.1544 7.17873,-11.97799 3.76935,-16.58536 -4.13085,-5.58237 -12.945258,-5.33876 -16.785266,0.46388 -2.256515,3.40982 -3.526937,8.88336 -2.061857,8.88336 0.497963,0 0.905389,0.46975 0.905389,1.0439 0,1.14738 4.274609,5.43913 6.805388,6.83267 2.360986,1.30004 4.490416,1.11551 7.366996,-0.63845 z m -3.36383,-26.50658 c 6.90678,-0.97566 8.57954,-1.76717 7.83501,-3.70736 -0.39905,-1.03993 -1.45913,-1.15258 -6.52556,-0.69347 l -6.049111,0.54815 1.555015,-1.85004 c 0.855266,-1.01753 3.993326,-4.42372 6.973486,-7.56931 2.98015,-3.1456 5.41845,-6.07384 5.41845,-6.5072 0,-2.16411 -2.23548,-2.35569 -10.80855,-0.92627 -4.843839,0.80764 -10.113932,1.48532 -11.711324,1.50598 -3.563918,0.0461 -5.542821,1.94144 -3.822827,3.66144 0.948975,0.94897 2.403199,1.00076 8.618215,0.30686 4.112128,-0.45911 7.589226,-0.7207 7.726886,-0.58131 0.13765,0.13938 -2.05933,2.95556 -4.882177,6.25817 -2.822859,3.30262 -5.343183,6.65254 -5.600731,7.44429 -0.64266,1.97567 1.086156,3.82692 3.158333,3.38199 0.9404,-0.20192 4.5921,-0.77428 8.114885,-1.27192 z M 91.977773,117.00717 c 0.51825,-0.62447 0.687584,-2.15628 0.398267,-3.60286 l -0.503302,-2.51652 h 8.841572 c 9.38535,0 11.37443,-0.35002 11.37443,-2.00158 0,-1.64641 -1.98542,-2.00159 -11.1887,-2.00159 -9.263145,0 -9.627778,-0.16554 -9.627778,-4.37093 0,-2.15479 -1.921121,-4.027044 -3.27412,-3.190846 -0.683061,0.42215 -0.789425,2.803086 -0.386546,8.652566 0.640916,9.30561 1.928471,11.96902 4.366177,9.03176 z M 113.20664,96.80445 c 0.76898,-2.003962 -0.0949,-2.645318 -4.31769,-3.20549 l -3.93462,-0.521949 -0.2358,-4.905543 -0.23581,-4.905544 4.8038,-2.401902 c 4.83589,-2.417941 6.2126,-4.602085 3.17494,-5.037034 -1.72357,-0.246791 -15.015085,4.993224 -21.342799,8.414137 -2.066052,1.116957 -3.966236,2.577503 -4.222631,3.24566 -1.076949,2.806462 4.713059,6.245233 15.18479,9.018468 7.09504,1.878984 10.48461,1.970136 11.12582,0.299197 z m -3.23767,-26.636042 c 2.12448,-1.876715 3.72385,-5.279489 3.70346,-7.879364 -0.0283,-3.612454 -2.9153,-9.218674 -4.57422,-8.882732 -1.46914,0.297508 -1.49732,0.65428 -0.56263,7.124472 0.72825,5.04117 -0.47194,7.122779 -4.10674,7.122779 -3.44225,0 -7.466232,-1.63485 -9.417377,-3.826067 -1.182721,-1.328236 -1.291263,-1.969657 -0.563454,-3.329582 1.060119,-1.980852 0.488643,-3.252592 -1.461606,-3.252592 -3.532116,0 -4.516936,5.462267 -1.643445,9.115314 4.176115,5.309073 14.530312,7.425812 18.626012,3.807772 z M 93.52234,48.231532 93.770824,45.235814 h 8.260296 c 6.54326,0 8.478,-0.262319 9.30763,-1.261971 1.72337,-2.076534 -0.45968,-2.715475 -9.3239,-2.728938 l -8.072314,-0.01226 -0.734661,-3.803011 c -0.599779,-3.104789 -1.076012,-3.851373 -2.593878,-4.066427 l -1.859208,-0.263416 0.561317,8.670072 c 0.308732,4.768539 0.728608,8.960234 0.933074,9.314876 0.204458,0.354644 0.968655,0.53179 1.698209,0.393659 0.895789,-0.169605 1.407138,-1.223787 1.574951,-3.246866 z"
     id="path12"
     transform="scale(0.26458333)" />
  <path
     style="fill:#efefe6;fill-opacity:1;stroke-width:0.0960039"
     d="m 97.911081,90.994675 c -2.955493,-1.042145 -5.114677,-1.93073 -5.717505,-2.352968 -0.370635,-0.259602 -0.287521,-0.318605 1.944564,-1.380445 1.282461,-0.610088 3.264048,-1.528684 4.403526,-2.041323 l 2.071774,-0.932073 -6e-5,3.838828 -6e-5,3.829827 c 0,-0.005 -1.216008,-0.437781 -2.702239,-0.961846 z"
     id="path13"
     transform="scale(0.26458333)" />
  <path
     style="fill:#efefe6;fill-opacity:1;stroke-width:0.0960039"
     d="m 100.43317,167.02297 c -1.27026,-0.59536 -2.639423,-1.73223 -3.643491,-3.02533 -1.335352,-1.71976 -1.598372,-1.95345 -2.198638,-1.95345 h -0.544104 l 0.541786,-1.48623 c 0.809437,-2.22045 1.845964,-4.27522 2.584427,-5.12327 2.155286,-2.47513 6.81835,-2.4064 9.28652,0.13689 2.03982,2.1019 1.63656,6.43109 -0.91753,9.84986 -1.405,1.88067 -3.26763,2.46456 -5.10897,1.60153 z"
     id="path14"
     transform="scale(0.26458333)" />
  <path
     id="path80"
     style="fill:#343630;stroke-width:0.264583;fill-opacity:1"
     d="m 24.513858,43.634961 c 0.52408,0.83729 1.35951,1.54603 2.35933,1.69647 1.90153,0.13319 3.23781,-2.62985 2.41822,-4.34149 -0.65654,-1.4195 -2.94822,-1.82583 -4.09295,-0.79596 -0.58258,0.52066 -0.91115,1.262 -1.14615,1.99202 -0.38543,1.15747 0.74966,1.02699 0.85072,0.58333 0.24993,-0.66505 0.4346,-1.4204 1.02291,-1.87869 0.75919,-0.5789 2.41362,-0.23147 2.58765,0.90318 0.20951,1.1232 -0.72607,2.78082 -1.70333,2.51454 -0.66136,-0.20144 -1.15152,-0.73781 -1.52353,-1.29693 -0.32112,-0.34307 -0.99562,0.059 -0.82551,0.50557 0.0209,0.058 0.0547,0.11796 0.0526,0.11796 z m 0.16882,4.02863 c -0.75727,-0.0339 -1.26564,0.84827 -1.05459,1.52722 0.17708,0.98473 0.91674,1.7282 1.62145,2.38153 1.0195,0.88571 2.43073,1.46354 3.78769,1.15155 0.94317,-0.25738 1.6258,-1.13703 1.7758,-2.08502 0.28607,-1.31618 -0.13626,-2.69516 -0.87105,-3.79265 -0.10311,-0.33377 -0.48057,-0.69579 -0.8433,-0.49884 -0.43674,0.22549 -0.21645,0.75045 0.006,1.04902 0.57444,0.84909 0.93909,1.89831 0.75625,2.9293 -0.10889,0.59205 -0.42546,1.24072 -1.05019,1.41692 -0.76303,0.22245 -1.5675,-0.07 -2.23287,-0.44292 -0.72942,-0.43838 -1.34818,-1.06356 -1.79477,-1.7858 -0.244,-0.32609 -0.29532,-0.85449 0.19721,-0.95148 0.40258,-0.20753 0.26064,-0.82615 -0.1652,-0.89238 l -0.0656,-0.008 z m -0.2782,-35.753507 c 1.57394,-0.004 3.14792,0.007 4.72184,-0.006 0.41089,-0.0341 0.57702,-0.66994 0.22368,-0.89141 -0.29184,-0.19227 -0.65105,-0.0684 -0.9744,-0.10212 -1.36116,7.2e-4 -2.72234,-0.007 -4.08347,0.005 -0.41256,0.0352 -0.57737,0.67268 -0.22138,0.89416 0.097,0.0669 0.21484,0.10902 0.33373,0.10039 z m 0.39111,1.13877 c 0.0147,-1.31513 -0.0703,-2.63296 -0.28472,-3.9311695 -0.0947,-0.40284 -0.7518,-0.46348 -0.91141,-0.0774 -0.18577,0.39441 0.21486,0.9787695 0.20199,4.1259395 0.0444,0.38105 0.60526,0.567 0.8535,0.26239 0.095,-0.10087 0.14903,-0.24087 0.14064,-0.37972 z m -0.48394,2.18347 c -0.59535,0.40359 -0.8276,1.30544 -0.39992,1.90958 0.89089,1.48075 3.29403,2.18158 4.63618,1.74088 1.32346,-0.52126 2.0588,-2.58739 0.73975,-4.55127 -0.24968,-0.36923 -0.89963,-0.12665 -0.87998,0.30462 0.0947,0.47201 0.46696,0.84093 0.5278,1.3261 0.14403,0.65645 0.004,1.43198 -0.5325,1.87821 -0.65498,0.44663 -2.71602,0.0731 -3.66563,-1.20596 -0.17046,-0.3257 0.17983,-0.58387 0.32937,-0.83506 0.17847,-0.42136 -0.39939,-0.86077 -0.75507,-0.56714 z m 3.32864,9.422897 c -0.008,-0.76665 0.0157,-1.53362 -0.0126,-2.30003 -0.0636,-0.3355 -0.52762,-0.509787 -0.78971,-0.28439 -0.16433,0.12312 -0.22295,0.34384 -0.19525,0.54045 -4.3e-4,0.72754 -0.013,1.45526 0.008,2.18263 0.0571,0.32869 0.50071,0.51645 0.76882,0.30897 0.14307,-0.0984 0.2334,-0.2733 0.22056,-0.44763 z m 1.78065,0.25079 c -1.64159,-0.13388 -3.23123,-0.63507 -4.74107,-1.27426 -0.2662,-0.10165 -0.61741,-0.3912 -0.77708,-0.46483 -0.0203,0.21854 0.11503,0.50883 0.31946,0.2308 1.87854,-0.94835 3.83016,-1.741077 5.78856,-2.507087 0.3781,-0.22791 0.19076,-0.95694 -0.27364,-0.9035 -0.48447,0.0562 -0.90064,0.33799 -1.36156,0.47627 -1.74837,0.69814 -3.48386,1.44123 -5.1438,2.331237 -0.33159,0.24176 -0.38136,0.81617 -0.0207,1.05616 0.73682,0.66824 1.7111,0.96284 2.62693,1.29524 1.18873,0.38696 2.41741,0.6993 3.66968,0.76094 0.46522,-0.0376 0.6086,-0.73137 0.18841,-0.94157 -0.0834,-0.046 -0.18033,-0.0667 -0.27523,-0.0594 z m -5.61262,4.41363 c 1.79392,-0.004 3.58789,0.009 5.38178,-0.007 0.40417,-0.0451 0.57598,-0.66643 0.2183,-0.8877 -0.29781,-0.19007 -0.60712,-0.11716 -0.99447,-0.1051 -1.57503,0.002 -3.15011,-0.009 -4.72511,0.007 -0.40279,0.0467 -0.57114,0.65994 -0.22107,0.88648 0.0966,0.073 0.22,0.11293 0.34057,0.10651 z m 0.61963,1.30314 c -0.071,-1.33743 -0.27776,-2.66231 -0.40087,-3.99503 -0.0727,-0.3785 -0.64255,-0.51624 -0.87051,-0.19793 -0.18311,0.22321 -0.0944,0.52544 -0.0731,0.78435 0.1179,1.18625 0.28825,2.36768 0.3585,3.55837 0.0654,0.39349 0.67584,0.52608 0.88703,0.18016 0.0684,-0.0949 0.10488,-0.21291 0.0989,-0.32992 z m 0.64984,7.31788 c 1.18354,-1.55407 2.50585,-2.9969 3.88001,-4.38329 0.3861,-0.17686 0.6898,-0.64254 0.53603,-1.06866 -0.24419,-0.387 -0.76616,-0.23638 -1.13392,-0.16128 -1.77183,0.40164 -3.59577,0.63872 -5.40844,0.76783 -0.45251,0.10243 -0.44643,0.78793 -0.045,0.95767 0.31103,0.027 2.55619,-4.7e-4 6.06802,-0.83415 -0.44695,0.12382 -0.22247,-0.61303 -0.44006,-0.62122 -0.26501,0.18836 -0.44581,0.47322 -0.70037,0.67773 -1.28928,1.29526 -2.48214,2.68451 -3.6074,4.12351 -0.24053,0.37513 0.20931,0.93767 0.62564,0.73255 0.0908,-0.0415 0.16681,-0.11076 0.22552,-0.19071 z m -0.16319,0.34782 c 1.23047,-0.19511 2.46901,-0.33807 3.70109,-0.52248 0.23405,-0.0131 0.52181,-0.0586 0.63076,-0.29774 0.14694,-0.28482 -0.0463,-0.70217 -0.38275,-0.71547 -0.42031,-0.0342 -2.2869,0.30939 -4.19016,0.56459 -0.29855,0.0663 -0.46617,0.43592 -0.32118,0.70467 0.10043,0.20738 0.33845,0.31784 0.56224,0.26642 z M 0.45165401,5.7745736e-4 C 0.32034663,-0.00702254 0.17483218,0.05986746 0.01653846,0.23260446 -0.02346484,1.0457645 0.280003,1.9546225 0.72553911,2.6691485 2.2233617,4.7337715 4.085765,5.0828915 8.4070649,5.2382375 c 4.3212991,0.155345 10.6870971,0.116916 12.4893361,0.08036 v -5.17e-4 c 2.148817,0.004 4.297409,-0.02124 6.445601,0.03566 1.407171,0.0875 3.15784,0.186107 4.134115,1.381827 0.471702,0.57774 0.886607,1.60598 1.539957,5.2177695 0.440445,2.43482 0.726499,4.875032 0.979785,7.334952 0.435001,4.843462 0.512119,9.707952 0.559139,14.567582 0.02402,4.05314 0.01222,8.1063 0.0062,12.15947 0.03858,2.44405 -0.02954,4.88548 -0.187586,7.3241 -0.05948,0.60016 -0.01178,1.25696 -0.288354,1.81333 -0.104354,0.24495 -0.253976,0.33743 -0.487309,0.43098 -0.730639,0.31502 -1.525991,0.46845 -2.294434,0.66921 -12.047414,2.55728 -25.8661957,-1.18574 -29.8674269,3.98636 -0.69139173,0.6116 -1.4145399,1.40017 -1.4360881,2.37608 0.435126,1.07024 1.2805794,-0.26039 1.3451376,-0.85318 0.9572724,-1.10057 2.1806844,-1.98003 3.49281,-2.61638 4.618864,-2.03524 16.9064224,0.2156 26.7182654,-1.92494 0.814508,-0.21286 1.65476,-0.38048 2.429309,-0.71521 0.458947,-0.19828 0.806081,-0.47905 1.012341,-0.94412 0.291317,-0.68447 0.346363,-1.41989 0.373621,-2.1575 0.159268,-2.45964 0.228312,-4.92204 0.189653,-7.38714 0.0061,-4.0569 0.01787,-8.11346 -0.0062,-12.17032 -0.04737,-4.89062 -0.125549,-9.78684 -0.564306,-14.661118 C 34.733734,16.695043 34.443974,14.2245 33.996893,11.75959 33.374141,8.3261305 32.929297,6.8874685 32.150494,5.9976685 30.97088,4.6498985 29.036792,4.4400475 27.368357,4.3543575 26.289864,4.3261075 25.211071,4.3180575 24.132379,4.3166375 20.748457,4.2821215 7.8280306,4.5601995 4.4844828,3.9063785 3.1127641,3.6544875 1.7604682,2.7863555 1.2221497,1.4645705 1.2057434,1.0008165 0.92060896,0.02756146 0.45165401,5.7745736e-4 Z" />
</svg>
