<?xml version="1.0" encoding="UTF-8" standalone="no"?>
<!-- Created with Inkscape (http://www.inkscape.org/) -->

<svg
   width="70mm"
   height="100mm"
   viewBox="0 0 70 100"
   version="1.1"
   id="svg1"
   xmlns="http://www.w3.org/2000/svg"
   xmlns:svg="http://www.w3.org/2000/svg">
  <defs
     id="defs1" />
  <g
     id="layer1"
     transform="translate(0.17050699,-58.242466)">
    <g
       id="layer4">
      <path
         d="m -43.358096,268.67037 c -0.117171,0.0135 -0.246833,0.10481 -0.375171,0.30851 -1.602431,2.6015 -1.300577,5.78547 -1.187008,8.7018 0.260571,3.6455 0.690335,7.41411 2.420524,10.68927 0.717694,1.06323 2.462214,1.07977 3.169832,-0.006 2.309412,-2.40347 3.025032,-5.8008 3.659725,-8.95915 0.337878,-1.87326 0.712009,-3.74616 0.98547,-5.62808 0.848763,3.10338 4.169925,12.13558 9.7901,14.82856 1.19498,0.57305 2.805854,0.49598 3.651979,-0.63976 1.44611,-1.70237 1.58795,-4.05022 1.86758,-6.16965 0.25324,-3.08611 -0.15113,-6.21609 -1.11363,-9.15603 0.56514,-0.89886 -1.2268,-2.97152 -1.487761,-1.37201 1.153041,3.22341 1.848771,6.63997 1.684651,10.07536 -0.0401,2.07328 -0.23481,4.33255 -1.53892,6.03219 -1.167513,1.16422 -3.097319,0.58976 -4.146003,-0.44804 -4.823818,-3.85443 -6.474246,-9.74735 -8.720915,-15.17995 -1.745939,-0.42286 -0.526247,5.52996 -3.692281,13.51959 -0.64536,1.02061 -1.4807,3.2814 -3.006018,2.50062 -1.125768,-0.9035 -1.323482,-2.45232 -1.687753,-3.76618 -0.755801,-3.45009 -1.013356,-7.00177 -0.968416,-10.52752 0.06731,-1.31195 0.301135,-2.66795 1.034562,-3.78478 0.249255,-0.4018 0.01096,-1.05893 -0.340547,-1.01855 z"
         style="baseline-shift:baseline;display:inline;overflow:visible;vector-effect:none;enable-background:accumulate;stop-color:#000000;stop-opacity:1"
         id="path24" />
      <path
         d="m -11.249455,272.91301 c -0.60104,0.0272 -1.20172,0.34999 -1.56787,0.83096 -1.47457,1.4937 -2.1665,3.53764 -2.8546,5.47305 -0.59235,1.89588 -0.99299,3.96599 -0.46716,5.92315 0.74853,2.11288 2.94245,3.32825 5.05396,3.67213 2.6696097,0.4688 5.5007297,-0.51663 7.3752607,-2.45825 1.34653,-1.25136 2.4883,-2.75408 3.17706996,-4.46743 0.0934,-1.0743 -1.23560996,-0.61187 -1.24488996,0.18707 -0.48298,0.96006 -1.00565,1.91452 -1.77509,2.67839 -1.587791,1.856 -3.912441,3.32783 -6.437851,3.15123 -1.9028797,-0.0678 -3.9348797,-0.8571 -4.9655797,-2.53731 -0.8835,-1.78148 -0.28066,-3.80398 0.18448,-5.61206 0.60129,-2.02462 1.45645,-3.84318 2.80086,-5.48701 0.69051,-0.74742 1.85418,-0.44341 1.79473,1.6738 0.0263,1.37136 -0.19338,1.85552 -0.74414,3.13004 -0.53171,1.00299 -1.52705,1.61302 -2.42931,2.23966 -0.38166,0.32727 -0.80063,1.37746 0.15968,1.10433 2.20313,-0.96317 3.7458897,-3.21338 3.8803797,-5.61103 0.15454,-1.23012 0.13322,-2.73613 -0.9084697,-3.591 -0.3103,-0.22633 -0.67084,-0.31605 -1.03146,-0.29972 z"
         style="baseline-shift:baseline;display:inline;overflow:visible;vector-effect:none;enable-background:accumulate;stop-color:#000000;stop-opacity:1"
         id="path22" />
      <path
         d="m -0.14315434,262.35293 c -0.31901,0.007 -0.70248,0.34078 -0.493,0.66456 1.49476,8.45657 2.45522004,16.13657 3.91553004,24.0869 1.40745,0.062 1.54124,-1.62251 1.44642,-2.66599 -0.80459,-8.26008 6.2293903,-10.7705 9.7751103,-8.16125 5.72092,4.46519 1.98153,12.86104 -8.1834803,11.11611 -1.07484,-0.02 -0.91104,1.22796 0.10852,0.9679 15.9742003,1.71931 13.6034903,-14.01603 5.1325103,-14.11128 -5.8830603,0.24095 -7.6574703,4.57264 -8.0408603,8.25996 -1.16968,-6.0867 -1.77656,-11.655 -3.32744004,-19.93263 -0.0566,-0.1633 -0.18831,-0.22752 -0.33331,-0.22428 z"
         style="baseline-shift:baseline;display:inline;overflow:visible;vector-effect:none;enable-background:accumulate;stop-color:#000000;stop-opacity:1"
         id="path21" />
      <path
         d="m 35.536836,268.32724 c -0.25,0 -0.49971,0.17665 -0.49971,0.5302 v 0.12093 c 0.33075,-0.068 0.65936,-0.14411 0.9927,-0.19896 -0.0347,-0.30032 -0.26257,-0.45217 -0.49299,-0.45217 z m 0.50023,1.45108 c -0.33617,0.0575 -0.66681,0.1391 -0.99994,0.21187 v 9.50795 c -0.0318,2.23134 0.0542,4.46159 0.17725,6.689 0.039,0.70602 1.0374,0.65073 0.99839,-0.0553 -0.12212,-2.20903 -0.20758,-4.42077 -0.1757,-6.63371 z"
         style="baseline-shift:baseline;display:inline;overflow:visible;vector-effect:none;enable-background:accumulate;stop-color:#000000;stop-opacity:1"
         id="path20" />
      <path
         d="m 39.832696,268.45023 c -2.60982,0.0142 -5.2218,0.47091 -7.69204,1.27899 -0.84878,0.40547 -3.05191,0.62807 -2.3368,2.00918 l 0.25011,-0.0408 c 4.91714,-2.41173 10.77602,-2.92751 16.01918,-1.32808 3.67194,1.22594 10.85128,7.04784 5.79809,12.26592 -2.56721,2.98223 -6.37442,4.40097 -9.94616,5.78001 -2.94257,1.04904 -5.97163,1.88922 -9.07077,2.3151 -0.70847,-0.37851 -2.96196,0.43873 -1.45159,1.0573 1.65034,0.23929 3.22467,-0.49438 4.84209,-0.67438 5.42871,-1.32862 10.94809,-3.12535 15.33653,-6.7107 8.28687,-7.32931 -2.18812,-14.67529 -7.08484,-15.48019 -1.53284,-0.33003 -3.09791,-0.48084 -4.6638,-0.47232 z"
         style="baseline-shift:baseline;display:inline;overflow:visible;vector-effect:none;enable-background:accumulate;stop-color:#000000;stop-opacity:1"
         id="path19" />
      <path
         d="m 63.278296,272.84996 c -0.70693,0.0212 -1.41879,0.24904 -1.98748,0.64028 -1.6879,1.01988 -2.72767,2.75544 -3.87005,4.30309 -1.36297,2.26128 -2.0996,5.06307 -1.4087,7.6662 0.64371,1.73608 2.41147,2.73088 4.09433,3.25097 2.23882,0.66792 4.87599,0.29696 6.6027,-1.36013 1.43585,-1.24981 2.69458,-2.80351 3.25664,-4.64571 0.0762,-0.85465 -1.00482,-0.71522 -0.97823,0.0651 -0.43544,1.24969 -1.13888,2.40317 -2.1177,3.30109 -1.44078,1.40882 -3.49431,2.38872 -5.54178,1.99833 -1.52258,-0.25195 -2.97478,-0.99398 -4.04833,-2.10323 -0.76051,-1.08058 -0.61801,-2.49979 -0.46199,-3.73879 0.55682,-3.26799 2.60715,-6.13973 5.16971,-8.16539 0.95142,-0.50837 2.37098,-0.43723 2.98741,0.55138 0.34129,1.12002 -0.44834,2.14466 -1.07538,2.99258 -1.37084,1.63038 -3.3069,2.60239 -5.11545,3.65611 -0.41817,0.31332 0.16389,0.87614 0.53382,0.67955 2.37943,-1.19948 4.88155,-2.62144 6.17275,-5.06119 0.47378,-0.89254 0.87405,-2.10706 0.17518,-2.99413 -0.57778,-0.74893 -1.47855,-1.06334 -2.38745,-1.03612 z"
         style="baseline-shift:baseline;display:inline;overflow:visible;vector-effect:none;enable-background:accumulate;stop-color:#000000;stop-opacity:1"
         id="path18" />
      <path
         d="m 79.661276,273.78944 c -0.29801,0.0136 -0.63803,0.23933 -0.70384,0.54157 0.0513,0.52091 -0.1533,1.02593 -0.26458,1.54203 -0.72725,2.99894 -1.4351,6.00328 -2.10426,9.01547 -0.0588,0.31701 -0.11145,0.63525 -0.1571,0.95446 -1.54916,-3.21959 -2.87579,-6.56062 -3.71812,-10.03815 -0.23564,-0.52299 -0.005,-1.22295 -0.46819,-1.64021 -0.30952,-0.23157 -0.78188,0.006 -0.73122,0.4036 0.20725,2.14545 0.99825,4.17075 1.67328,6.20013 0.83719,2.29264 1.8207,4.53194 2.94194,6.69985 0.46967,0.59154 1.37779,-0.11291 1.22577,-0.74827 0.0791,-1.19865 0.37773,-2.37085 0.62477,-3.54345 0.49354,-2.10989 1.03937,-4.20721 1.49758,-6.3252 0.21595,-0.88219 0.43975,-1.76264 0.65371,-2.64532 -0.0319,-0.30936 -0.23796,-0.42708 -0.46974,-0.41651 z"
         style="baseline-shift:baseline;display:inline;overflow:visible;vector-effect:none;enable-background:accumulate;stop-color:#000000;stop-opacity:1"
         id="path17" />
      <path
         d="m 90.199646,272.97761 c -1.03268,-0.0342 -2.07795,0.51437 -2.83962,1.1901 -2.39348,1.86023 -3.94586,4.75391 -4.21059,7.76852 -0.0955,1.19124 0.32991,2.39161 1.16168,3.24942 1.20391,1.44247 3.10756,2.23604 4.97903,2.08669 2.25561,-0.14498 4.34462,-1.25147 6.03012,-2.70991 0.62573,0.029 1.26716,-1.04694 0.64389,-1.42162 -0.65452,-0.0469 -1.13658,0.55017 -1.62988,0.9033 -1.35565,1.19422 -3.05495,2.08128 -4.86947,2.26188 -1.94483,0.19476 -3.92644,-0.83378 -4.95008,-2.48357 -0.70396,-1.54653 -0.17771,-3.27543 0.3762,-4.77852 0.92206,-2.19455 2.60472,-4.13198 4.81314,-5.08858 0.92709,-0.31494 1.78396,0.79943 1.27435,1.62574 -0.51265,1.61698 -1.98966,2.71764 -3.52124,3.28973 -0.70718,0.18274 -1.6017,-0.002 -2.11718,0.63665 -0.22695,0.27998 0.14186,0.65625 0.43977,0.60461 2.66166,-0.0652 5.40179,-1.73503 6.18205,-4.36924 0.27523,-0.86992 0.18399,-2.08282 -0.74466,-2.51974 -0.33043,-0.1577 -0.67328,-0.23407 -1.01751,-0.24546 z"
         style="baseline-shift:baseline;display:inline;overflow:visible;vector-effect:none;enable-background:accumulate;stop-color:#000000;stop-opacity:1"
         id="path15" />
      <path
         d="m 98.792406,265.58943 c -0.29389,-0.0163 -0.62242,0.18614 -0.56431,0.51469 -0.009,5.07752 -0.1724,10.22681 1.02061,15.20269 0.50195,2.21473 1.137904,4.49416 2.541974,6.32106 0.66372,0.77131 1.85865,1.26546 2.80241,0.69867 0.64334,-0.0997 2.04829,-1.10351 1.09192,-1.66605 -0.90715,-0.006 -1.6295,1.47677 -2.61999,0.71624 -1.13324,-0.73526 -1.51689,-2.12626 -1.99936,-3.30936 -1.168604,-3.41206 -1.646864,-7.02732 -1.801454,-10.61848 -0.081,-2.52392 0.009,-5.04977 -0.0718,-7.57369 -0.0599,-0.18767 -0.22364,-0.27602 -0.39997,-0.28577 z"
         style="baseline-shift:baseline;display:inline;overflow:visible;vector-effect:none;enable-background:accumulate;stop-color:#000000;stop-opacity:1"
         id="path11" />
      <path
         d="m 111.01957,273.44114 c -0.47625,0.0118 -0.92222,0.15961 -0.7674,0.72089 0.67055,0.52395 1.58028,0.27557 2.34611,0.5302 1.73234,0.34352 3.46005,1.26356 4.31602,2.87011 0.93325,1.61632 0.8767,3.63114 0.21859,5.33559 -0.64889,1.77339 -2.10083,3.42018 -4.03541,3.73827 -1.81203,0.25786 -3.61829,-0.69301 -4.71909,-2.09961 -1.06289,-1.12528 -1.86648,-2.75349 -1.36271,-4.31602 0.30026,-1.43021 1.01082,-2.96011 2.43809,-3.5574 0.52913,-0.25352 0.99467,-1.30026 0.015,-1.25884 -2.09993,0.77347 -3.36047,2.95102 -3.62407,5.0922 -0.35122,1.89439 0.648,3.76766 1.98748,5.04517 1.24828,1.32555 2.99749,2.37265 4.87825,2.20813 1.71314,-0.0686 3.30034,-1.03 4.29276,-2.40554 1.7424,-2.20481 2.21728,-5.40266 1.06454,-7.98091 -1.1849,-2.35106 -3.78402,-3.73075 -6.35672,-3.86849 -0.13391,-0.0206 -0.30699,-0.043 -0.48731,-0.0512 -0.0676,-0.003 -0.13608,-0.004 -0.20412,-0.003 z"
         style="baseline-shift:baseline;display:inline;overflow:visible;vector-effect:none;enable-background:accumulate;stop-color:#000000;stop-opacity:1"
         id="path8" />
      <path
         d="m 121.99823,273.1409 c -0.28396,-0.006 -0.5873,0.18428 -0.5364,0.51677 0.0209,2.45459 0.0746,4.90968 0.15658,7.36389 0.16419,-0.84576 0.44201,-1.66856 0.84646,-2.42983 0.0218,-0.0388 0.0463,-0.0758 0.0687,-0.1142 -0.0446,-1.64776 -0.0741,-3.29588 -0.0827,-4.9444 -0.0226,-0.26553 -0.23183,-0.38788 -0.45268,-0.39223 z m 0.63097,8.29304 c -0.0863,0.48427 -0.13074,0.97657 -0.11628,1.47226 0.0403,0.40891 -0.46734,0.58141 -0.8077,0.45217 0.19826,4.72595 0.51833,9.44653 0.99374,14.15055 1.3273,2.02693 0.97896,-2.13466 0.67593,-3.05769 -0.31151,-4.33402 -0.57923,-8.67392 -0.74569,-13.01729 z"
         style="baseline-shift:baseline;display:inline;overflow:visible;vector-effect:none;enable-background:accumulate;stop-color:#000000;stop-opacity:1"
         id="path4" />
      <path
         d="m 129.90782,273.96049 c -0.41181,0.01 -0.82365,0.06 -1.22938,0.15503 -2.55054,0.56787 -4.92351,2.17922 -6.21357,4.47621 -0.73533,1.38407 -1.06683,2.9693 -1.01906,4.53203 0.19638,0.45376 1.12096,0.3287 1.06711,-0.21756 -0.0941,-3.22489 2.04944,-6.35645 5.0736,-7.46725 2.4751,-1.19222 5.73353,-0.26616 7.20266,2.06034 1.5011,2.08765 1.77679,5.19524 0.13281,7.28483 -1.64282,2.07089 -4.46764,2.86192 -7.02335,2.6231 -1.6623,-0.16981 -3.34813,-0.88749 -4.36769,-2.2562 -1.10895,0.13047 -0.45975,1.48602 0.23926,1.74253 1.91029,1.46715 4.49492,1.74223 6.81096,1.36013 2.3127,-0.42203 4.61779,-1.66064 5.82548,-3.73983 1.53065,-2.80429 0.627,-6.48675 -1.64848,-8.61549 -1.28224,-1.24669 -3.06583,-1.97884 -4.85035,-1.93787 z"
         style="baseline-shift:baseline;display:inline;overflow:visible;vector-effect:none;enable-background:accumulate;stop-color:#000000;stop-opacity:1"
         id="path3" />
      <path
         d="m 147.19721,273.25924 c -1.24985,0.0283 -2.48169,0.6231 -3.4184,1.43712 -2.46236,1.94133 -4.28526,4.87497 -4.43901,8.05378 0.006,1.80388 1.06751,3.54913 2.67943,4.36717 2.25849,1.2708 5.18568,0.93367 7.26467,-0.54415 1.06449,-0.72165 1.9043,-1.74876 2.46755,-2.90008 0.47664,-0.36913 0.50933,-1.77933 -0.33021,-1.53118 -0.76074,0.49734 -0.57496,1.63035 -1.25367,2.21692 -1.66626,2.22573 -4.95461,3.26569 -7.49929,1.98024 -1.38238,-0.69202 -2.44477,-2.16871 -2.30735,-3.75894 0.0928,-2.23143 1.2875,-4.26425 2.7342,-5.8999 0.97901,-1.05214 2.16221,-2.03369 3.5879,-2.3704 0.95948,-0.18911 2.22025,0.0743 2.61017,1.07901 0.33521,1.12664 -0.39278,2.23422 -1.15031,3.00757 -1.16997,1.1407 -2.83046,1.6538 -4.43849,1.67948 -0.52617,0.10406 -0.59439,1.08017 0.0605,1.00149 2.69979,0.0288 5.5333,-1.5267 6.48694,-4.13928 0.51478,-1.39398 -0.30799,-3.18594 -1.80919,-3.50522 -0.41034,-0.12932 -0.82879,-0.18307 -1.2454,-0.17363 z"
         style="baseline-shift:baseline;display:inline;overflow:visible;vector-effect:none;enable-background:accumulate;stop-color:#000000;stop-opacity:1"
         id="path2" />
      <path
         d="m 156.17702,273.31764 c -0.17799,0.004 -0.33056,0.13771 -0.38344,0.47439 h -5.2e-4 c -0.0461,4.88618 0.2144,9.77006 0.62839,14.63735 0.68602,0.65999 1.36454,-0.54179 1.11673,-1.17461 -0.23996,-3.32181 0.14584,-6.7956 1.74614,-9.76374 1.38115,-2.08751 4.05804,-3.34888 6.53966,-2.78588 0.45483,0.29941 1.3864,1.07662 1.72651,0.28267 0.0834,-0.85133 -0.95532,-1.1726 -1.60146,-1.40508 -2.33672,-0.61209 -4.83628,0.40498 -6.51536,2.04018 -1.36439,1.3432 -2.04716,3.20034 -2.41846,5.04155 -0.0294,0.13709 -0.0565,0.27437 -0.0827,0.41187 -0.0945,-2.14549 -0.14245,-4.2929 -0.14728,-6.44044 0.46605,-0.48505 -0.15336,-1.32732 -0.60823,-1.31826 z"
         style="baseline-shift:baseline;display:inline;overflow:visible;vector-effect:none;enable-background:accumulate;stop-color:#000000;stop-opacity:1"
         id="path1" />
    </g>
    <path
       id="path26"
       style="fill:#000000;stroke-width:0.265;stroke-dasharray:none"
       d="m 0.29509766,78.092386 c -0.13130738,-0.0076 -0.27682183,0.05929 -0.43511555,0.232027 -0.0400033,0.81316 0.26346454,1.722018 0.70900065,2.436544 2.49836664,3.176128 7.04138404,2.722558 10.64586224,2.649451 v -5.17e-4 c 2.148817,0.004 4.297409,-0.02124 6.445601,0.03566 1.407171,0.0875 3.15784,0.186107 4.134115,1.381827 0.471702,0.57774 0.886607,1.60598 1.539957,5.21777 0.440445,2.43482 0.726499,4.875032 0.979785,7.334952 0.435001,4.84346 0.512119,9.70795 0.559139,14.56758 0.02402,4.05314 0.01222,8.1063 0.0062,12.15947 0.03858,2.44405 -0.02954,4.88548 -0.187586,7.3241 -0.05948,0.60016 -0.01178,1.25696 -0.288354,1.81333 -0.104354,0.24495 -0.253976,0.33743 -0.487309,0.43098 -0.730639,0.31502 -1.525991,0.46845 -2.294434,0.66921 -12.0474137,2.55728 -13.6775688,-1.11915 -20.3424273,3.98636 -0.69139168,0.6116 -1.41453985,1.40017 -1.43608805,2.37608 0.435126,1.07024 1.28057935,-0.26039 1.34513755,-0.85318 0.9572724,-1.10057 2.1806844,-1.98003 3.49281,-2.61638 4.618864,-2.03524 7.3814228,0.2156 17.1932658,-1.92494 0.814508,-0.21286 1.65476,-0.38048 2.429309,-0.71521 0.458947,-0.19828 0.806081,-0.47905 1.012341,-0.94412 0.291317,-0.68447 0.346363,-1.41989 0.373621,-2.1575 0.159268,-2.45964 0.228312,-4.92204 0.189653,-7.38714 0.0061,-4.0569 0.01787,-8.11346 -0.0062,-12.17032 -0.04737,-4.89062 -0.125549,-9.78684 -0.564306,-14.661116 -0.256897,-2.49045 -0.546657,-4.960993 -0.993738,-7.425903 -0.622752,-3.43346 -1.067596,-4.872122 -1.846399,-5.761922 -1.179614,-1.34777 -3.113702,-1.557621 -4.782137,-1.643311 -1.078493,-0.02825 -2.157286,-0.0363 -3.235978,-0.03772 C 11.066901,82.37393 7.6714742,82.652008 4.3279264,81.998187 2.9562077,81.746296 1.6039118,80.878164 1.0655933,79.556379 1.049187,79.092625 0.76405261,78.11937 0.29509766,78.092386 Z" />
    <path
       style="fill:#000000;stroke-width:0.264583"
       id="path68"
       d="m 15.762203,116.38029 c 1.23047,-0.19511 2.46901,-0.33807 3.70109,-0.52248 0.23405,-0.0131 0.52181,-0.0586 0.63076,-0.29774 0.14694,-0.28482 -0.0463,-0.70217 -0.38275,-0.71547 -0.42031,-0.0342 -2.2869,0.30939 -4.19016,0.56459 -0.29855,0.0663 -0.46617,0.43592 -0.32118,0.70467 0.10043,0.20738 0.33845,0.31784 0.56224,0.26642 z" />
    <path
       style="fill:#000000;stroke-width:0.264583"
       id="path69"
       d="m 15.925393,116.03247 c 1.18354,-1.55407 2.50585,-2.9969 3.88001,-4.38329 0.3861,-0.17686 0.6898,-0.64254 0.53603,-1.06866 -0.24419,-0.387 -0.76616,-0.23638 -1.13392,-0.16128 -1.77183,0.40164 -3.59577,0.63872 -5.40844,0.76783 -0.45251,0.10243 -0.44643,0.78793 -0.045,0.95767 0.31103,0.027 2.55619,-4.7e-4 6.06802,-0.83415 -0.44695,0.12382 -0.22247,-0.61303 -0.44006,-0.62122 -0.26501,0.18836 -0.44581,0.47322 -0.70037,0.67773 -1.28928,1.29526 -2.48214,2.68451 -3.6074,4.12351 -0.24053,0.37513 0.20931,0.93767 0.62564,0.73255 0.0908,-0.0415 0.16681,-0.11076 0.22552,-0.19071 z" />
    <path
       style="fill:#000000;stroke-width:0.264583"
       id="path71"
       d="m 15.275553,108.71459 c -0.071,-1.33743 -0.27776,-2.66231 -0.40087,-3.99503 -0.0727,-0.3785 -0.64255,-0.51624 -0.87051,-0.19793 -0.18311,0.22321 -0.0944,0.52544 -0.0731,0.78435 0.1179,1.18625 0.28825,2.36768 0.3585,3.55837 0.0654,0.39349 0.67584,0.52608 0.88703,0.18016 0.0684,-0.0949 0.10488,-0.21291 0.0989,-0.32992 z" />
    <path
       style="fill:#000000;stroke-width:0.264583"
       id="path72"
       d="m 14.655923,107.41145 c 1.79392,-0.004 3.58789,0.009 5.38178,-0.007 0.40417,-0.0451 0.57598,-0.66643 0.2183,-0.8877 -0.29781,-0.19007 -0.60712,-0.11716 -0.99447,-0.1051 -1.57503,0.002 -3.15011,-0.009 -4.72511,0.007 -0.40279,0.0467 -0.57114,0.65994 -0.22107,0.88648 0.0966,0.073 0.22,0.11293 0.34057,0.10651 z" />
    <path
       style="fill:#000000;stroke-width:0.264583"
       id="path73"
       d="m 20.268543,102.99782 c -1.64159,-0.13388 -3.23123,-0.63507 -4.74107,-1.27426 -0.2662,-0.10165 -0.61741,-0.3912 -0.77708,-0.46483 -0.0203,0.21854 0.11503,0.50883 0.31946,0.2308 1.87854,-0.94835 3.83016,-1.741077 5.78856,-2.507087 0.3781,-0.22791 0.19076,-0.95694 -0.27364,-0.9035 -0.48447,0.0562 -0.90064,0.33799 -1.36156,0.47627 -1.74837,0.69814 -3.48386,1.44123 -5.1438,2.331237 -0.33159,0.24176 -0.38136,0.81617 -0.0207,1.05616 0.73682,0.66824 1.7111,0.96284 2.62693,1.29524 1.18873,0.38696 2.41741,0.6993 3.66968,0.76094 0.46522,-0.0376 0.6086,-0.73137 0.18841,-0.94157 -0.0834,-0.046 -0.18033,-0.0667 -0.27523,-0.0594 z" />
    <path
       style="fill:#000000;stroke-width:0.264583"
       id="path74"
       d="m 18.487893,102.74703 c -0.008,-0.76665 0.0157,-1.53362 -0.0126,-2.30003 -0.0636,-0.3355 -0.52762,-0.509787 -0.78971,-0.28439 -0.16433,0.12312 -0.22295,0.34384 -0.19525,0.54045 -4.3e-4,0.72754 -0.013,1.45526 0.008,2.18263 0.0571,0.32869 0.50071,0.51645 0.76882,0.30897 0.14307,-0.0984 0.2334,-0.2733 0.22056,-0.44763 z" />
    <path
       style="fill:#000000;stroke-width:0.264583"
       id="path75"
       d="m 15.159253,93.324133 c -0.59535,0.40359 -0.8276,1.30544 -0.39992,1.90958 0.89089,1.48075 3.29403,2.18158 4.63618,1.74088 1.32346,-0.52126 2.0588,-2.58739 0.73975,-4.55127 -0.24968,-0.36923 -0.89963,-0.12665 -0.87998,0.30462 0.0947,0.47201 0.46696,0.84093 0.5278,1.3261 0.14403,0.65645 0.004,1.43198 -0.5325,1.87821 -0.65498,0.44663 -2.71602,0.0731 -3.66563,-1.20596 -0.17046,-0.3257 0.17983,-0.58387 0.32937,-0.83506 0.17847,-0.42136 -0.39939,-0.86077 -0.75507,-0.56714 z" />
    <path
       style="fill:#000000;stroke-width:0.264583"
       id="path76"
       d="m 15.643193,91.140663 c 0.0147,-1.31513 -0.0703,-2.63296 -0.28472,-3.93117 -0.0947,-0.40284 -0.7518,-0.46348 -0.91141,-0.0774 -0.18577,0.39441 0.21486,0.97877 0.20199,4.12594 0.0444,0.38105 0.60526,0.567 0.8535,0.26239 0.095,-0.10087 0.14903,-0.24087 0.14064,-0.37972 z" />
    <path
       style="fill:#000000;stroke-width:0.264583"
       id="path77"
       d="m 15.252083,90.001893 c 1.57394,-0.004 3.14792,0.007 4.72184,-0.006 0.41089,-0.0341 0.57702,-0.66994 0.22368,-0.89141 -0.29184,-0.19227 -0.65105,-0.0684 -0.9744,-0.10212 -1.36116,7.2e-4 -2.72234,-0.007 -4.08347,0.005 -0.41256,0.0352 -0.57737,0.67268 -0.22138,0.89416 0.097,0.0669 0.21484,0.10902 0.33373,0.10039 z" />
    <path
       style="fill:#000000;stroke-width:0.264583"
       id="path79"
       d="m 15.530283,125.7554 c -0.75727,-0.0339 -1.26564,0.84827 -1.05459,1.52722 0.17708,0.98473 0.91674,1.7282 1.62145,2.38153 1.0195,0.88571 2.43073,1.46354 3.78769,1.15155 0.94317,-0.25738 1.6258,-1.13703 1.7758,-2.08502 0.28607,-1.31618 -0.13626,-2.69516 -0.87105,-3.79265 -0.10311,-0.33377 -0.48057,-0.69579 -0.8433,-0.49884 -0.43674,0.22549 -0.21645,0.75045 0.006,1.04902 0.57444,0.84909 0.93909,1.89831 0.75625,2.9293 -0.10889,0.59205 -0.42546,1.24072 -1.05019,1.41692 -0.76303,0.22245 -1.5675,-0.07 -2.23287,-0.44292 -0.72942,-0.43838 -1.34818,-1.06356 -1.79477,-1.7858 -0.244,-0.32609 -0.29532,-0.85449 0.19721,-0.95148 0.40258,-0.20753 0.26064,-0.82615 -0.1652,-0.89238 l -0.0656,-0.008 z" />
    <path
       style="fill:#000000;stroke-width:0.264583"
       id="path80"
       d="m 15.361463,121.72677 c 0.52408,0.83729 1.35951,1.54603 2.35933,1.69647 1.90153,0.13319 3.23781,-2.62985 2.41822,-4.34149 -0.65654,-1.4195 -2.94822,-1.82583 -4.09295,-0.79596 -0.58258,0.52066 -0.91115,1.262 -1.14615,1.99202 -0.38543,1.15747 0.74966,1.02699 0.85072,0.58333 0.24993,-0.66505 0.4346,-1.4204 1.02291,-1.87869 0.75919,-0.5789 2.41362,-0.23147 2.58765,0.90318 0.20951,1.1232 -0.72607,2.78082 -1.70333,2.51454 -0.66136,-0.20144 -1.15152,-0.73781 -1.52353,-1.29693 -0.32112,-0.34307 -0.99562,0.059 -0.82551,0.50557 0.0209,0.058 0.0547,0.11796 0.0526,0.11796 z" />
    <path
       style="fill:#000000;stroke-width:0.264583"
       id="path81"
       d="m -81.814432,107.17159 c 1.991303,0.0112 3.983109,-0.0341 5.97325,0.0419 1.255037,0.0907 3.137058,0.0968 4.285756,0.67937 0.515372,0.41637 0.801193,1.5725 1.056208,2.5315 0.86186,4.09781 1.356756,8.24311 1.75964,12.8387 0.327163,3.69521 0.621729,7.39277 0.886202,11.09302 0.498794,8.74765 0.39803,17.51738 0.394299,26.27594 -0.08852,4.62412 -0.251512,10.98256 -0.901445,19.54329 -0.166475,0.89764 -0.110377,1.92655 -0.5921,2.73742 -0.212837,0.32349 -0.525478,0.51131 -0.865562,0.67695 -0.646746,0.35132 -5.759119,1.30347 -9.461407,1.3535 -0.655228,0.004 -1.310472,5.3e-4 -1.9657,-0.002 -0.707103,-0.002 -0.710645,0.99749 -0.0035,1 v 0 c 0.660235,0.002 1.320487,0.005 1.980721,0.002 2.973181,0.0477 9.088959,-1.14466 9.896961,-1.45891 0.518778,-0.26391 0.988671,-0.58023 1.295615,-1.09114 0.852775,-1.36569 1.143758,-8.66941 1.221597,-11.31513 0.194866,-3.81281 0.322268,-7.62832 0.394862,-11.44553 0.0062,-16.5664 -0.04587,-21.13724 -0.396842,-26.34763 -0.264971,-3.70651 -0.560006,-7.41033 -0.887723,-11.1118 -0.492077,-5.8705 -1.030121,-9.61349 -1.981739,-13.93547 -0.293889,-0.8647 -0.580875,-1.72817 -1.392553,-2.24387 -1.294138,-0.61152 -3.27319,-0.71441 -4.685431,-0.77943 -2.00281,-0.0752 -4.007113,-0.0326 -6.011064,-0.0426 -0.707107,0 -0.707107,1 0,1 z" />
  </g>
</svg>
